<?xml version="1.0" encoding="UTF-8"?>
<!DOCTYPE svg PUBLIC "-//W3C//DTD SVG 1.1//EN" "http://www.w3.org/Graphics/SVG/1.1/DTD/svg11.dtd">
<svg version="1.1" xmlns="http://www.w3.org/2000/svg" xmlns:xlink="http://www.w3.org/1999/xlink" x="0" y="0" width="44.833" height="58.236" viewBox="0, 0, 44.833, 58.236">
  <defs>
    <linearGradient id="Gradient_1" gradientUnits="userSpaceOnUse" x1="32.122" y1="41.065" x2="32.122" y2="26.191">
      <stop offset="0" stop-color="#FEFEFF" stop-opacity="0.193"/>
      <stop offset="1" stop-color="#FFFFFF" stop-opacity="0.378"/>
    </linearGradient>
    <clipPath id="Clip_1">
      <path d="M22.485,23.991 L41.759,23.991 L41.759,43.265 L22.485,43.265 z M32.122,25.491 C27.628,25.491 23.985,29.134 23.985,33.628 C23.985,38.122 27.628,41.765 32.122,41.765 C36.616,41.765 40.259,38.122 40.259,33.628 C40.259,29.134 36.616,25.491 32.122,25.491 z"/>
    </clipPath>
    <filter id="Shadow_2">
      <feGaussianBlur in="SourceAlpha" stdDeviation="0.25"/>
      <feOffset dx="0" dy="0" result="offsetblur"/>
      <feFlood flood-color="#000000"/>
      <feComposite in2="offsetblur" operator="in"/>
    </filter>
    <clipPath id="Clip_3">
      <path d="M8.194,28.111 L18.227,28.111 L18.227,38.144 L8.194,38.144 z M10.856,30.09 C10.494,30.143 10.657,30.078 10.362,30.279 C10.05,30.592 10.05,31.099 10.362,31.412 L12.078,33.128 L10.362,34.844 C10.05,35.157 10.05,35.664 10.362,35.976 C10.675,36.289 11.182,36.289 11.495,35.976 L13.211,34.26 L14.927,35.976 C15.24,36.289 15.747,36.289 16.059,35.976 C16.372,35.664 16.372,35.157 16.059,34.844 L14.343,33.128 L16.059,31.412 C16.372,31.099 16.372,30.592 16.059,30.279 C15.747,29.967 15.24,29.967 14.927,30.279 L13.211,31.996 L11.495,30.279 L11.23,30.103 L10.856,30.09 z"/>
    </clipPath>
    <filter id="Shadow_4">
      <feGaussianBlur in="SourceAlpha" stdDeviation="0.467"/>
      <feOffset dx="0" dy="0" result="offsetblur"/>
      <feFlood flood-color="#000000"/>
      <feComposite in2="offsetblur" operator="in"/>
    </filter>
    <clipPath id="Clip_5">
      <path d="M26.606,28.111 L36.639,28.111 L36.639,38.144 L26.606,38.144 z M29.267,30.09 C28.905,30.143 29.069,30.078 28.774,30.279 C28.461,30.592 28.461,31.099 28.774,31.412 L30.49,33.128 L28.774,34.844 C28.461,35.157 28.461,35.664 28.774,35.976 C29.087,36.289 29.593,36.289 29.906,35.976 L31.622,34.26 L33.338,35.976 C33.651,36.289 34.158,36.289 34.471,35.976 C34.783,35.664 34.783,35.157 34.471,34.844 L32.754,33.128 L34.471,31.412 C34.783,31.099 34.783,30.592 34.471,30.279 C34.158,29.967 33.651,29.967 33.338,30.279 L31.622,31.996 L29.906,30.279 L29.641,30.103 L29.267,30.09 z"/>
    </clipPath>
    <filter id="Shadow_6">
      <feGaussianBlur in="SourceAlpha" stdDeviation="0.467"/>
      <feOffset dx="0" dy="0" result="offsetblur"/>
      <feFlood flood-color="#000000"/>
      <feComposite in2="offsetblur" operator="in"/>
    </filter>
  </defs>
  <g id="Layer_1">
    <path d="M22.417,11.442 C34.521,11.442 44.333,20.283 44.333,32.387 L44.333,50.862 L0.5,50.862 L0.5,32.388 C0.5,20.283 10.312,11.442 22.417,11.442 z" fill="#F4AE1E"/>
    <path d="M22.417,15.779 C33.313,15.779 42.147,24.352 42.147,35.249 L42.147,50.862 L2.686,50.862 L2.686,35.249 C2.686,24.352 11.52,15.779 22.417,15.779 z" fill="#FFCF09"/>
    <path d="M22.417,41.527 C25.924,41.59 30.11,42.293 31.117,46.016 L31.43,46.002 C38.99,46.002 42.147,48.168 42.147,48.168 L42.147,48.178 C43.453,48.266 44.127,49.238 44.333,50.437 C44.333,51.689 43.318,52.705 42.065,52.705 C10.966,54.075 6.909,52.66 2.768,52.705 C1.516,52.705 0.5,51.689 0.5,50.437 C0.574,49.143 1.475,48.395 2.686,48.179 L2.686,48.168 C2.686,48.168 5.843,46.002 13.403,46.002 L13.717,46.014 C14.729,42.242 18.908,41.661 22.417,41.527 z" fill="#E65E25"/>
    <path d="M21.734,47.876 L22.417,47.878 C28.101,47.937 33.806,48.3 39.32,49.248 C40.638,49.475 41.931,49.744 43.224,50.027 L43.274,50.021 C43.853,50.021 44.333,51.066 44.333,51.449 C44.313,51.775 43.976,51.317 43.485,51.383 L42.853,52.93 C42.853,52.93 32.871,53.684 27.981,56.531 C27.118,56.984 27.47,56.872 27.047,56.998 C25.937,57.941 24.087,58.124 22.416,58.236 C20.576,58.205 19.112,57.878 17.786,56.998 C17.363,56.872 17.715,56.984 16.852,56.531 C11.962,53.684 1.98,52.93 1.98,52.93 L1.348,51.383 C0.797,51.353 0.591,51.749 0.5,51.449 C0.5,51.066 0.98,50.021 1.559,50.021 C1.642,50.032 1.614,50.028 1.645,50.032 C6.831,48.928 12.208,48.215 17.645,47.971 C19.007,47.91 20.368,47.888 21.734,47.876 z" fill="#C24F20"/>
    <g>
      <path d="M22.417,14.431 C21.237,14.431 20.281,14.172 20.281,13.853 C20.281,13.534 21.237,13.275 22.417,13.275 C23.596,13.275 24.552,13.534 24.552,13.853 C24.552,14.172 23.596,14.431 22.417,14.431 z" fill="#945200" opacity="0.31"/>
      <path d="M19.77,0 C21.024,0.062 22.314,0.92 22.45,2.272 L22.496,2.257 C23.473,4.983 22.496,12.836 22.496,12.836 C22.496,12.836 22.317,15.747 21.072,12.389 C19.977,9.712 19.099,6.893 17.638,4.379 C17.436,4.177 17.533,4.306 17.388,3.963 C17.352,3.906 17.368,3.929 17.343,3.894 L17.357,3.889 C17.028,3.106 17.121,3.496 17.044,2.726 C17.044,1.22 18.264,0 19.77,0 z" fill="#F4AE1E"/>
      <path d="M26.542,7.386 C26.99,7.401 27.296,7.597 27.573,7.928 C27.96,8.494 27.814,9.266 27.247,9.652 C26.965,9.806 27.109,9.756 26.821,9.814 C25.237,10.709 24.365,12.339 23.79,14.007 L22.015,14.007 C23.081,8.177 25.849,7.601 25.849,7.601 C26.211,7.405 25.988,7.498 26.542,7.386 z" fill="#FFCF09"/>
    </g>
    <g>
      <path d="M1.98,52.93 C1.163,52.93 0.5,52.267 0.5,51.45 C0.5,50.632 1.163,49.969 1.98,49.969 C2.798,49.969 3.461,50.632 3.461,51.45 C3.461,52.267 2.798,52.93 1.98,52.93 z" fill="#C24F20"/>
      <path d="M42.853,52.93 C42.035,52.93 41.373,52.267 41.373,51.45 C41.373,50.632 42.035,49.969 42.853,49.969 C43.67,49.969 44.333,50.632 44.333,51.45 C44.333,52.267 43.67,52.93 42.853,52.93 z" fill="#C24F20"/>
    </g>
    <g>
      <path d="M40.848,35.376 C40.385,35.376 40.009,35 40.009,34.537 C40.009,34.321 39.864,33.697 39.864,34.062" fill="#FFFFFF" fill-opacity="0.052"/>
      <path d="M40.848,35.376 C40.385,35.376 40.009,35 40.009,34.537 C40.009,34.321 39.864,33.697 39.864,34.062" fill-opacity="0" stroke="#AA8004" stroke-width="0.467" stroke-linecap="round" stroke-linejoin="round"/>
    </g>
    <g>
      <path d="M40.301,33.703 C40.239,33.797 40.6,33.699 40.848,33.699 C41.311,33.699 41.686,34.074 41.686,34.537 C41.686,35 41.311,35.376 40.848,35.376" fill="#FFFFFF" fill-opacity="0.052"/>
      <path d="M40.301,33.703 C40.239,33.797 40.6,33.699 40.848,33.699 C41.311,33.699 41.686,34.074 41.686,34.537 C41.686,35 41.311,35.376 40.848,35.376" fill-opacity="0" stroke="#AA8004" stroke-width="0.467" stroke-linecap="round" stroke-linejoin="round"/>
    </g>
    <g>
      <path d="M42.125,36.397 C41.662,36.397 41.286,36.022 41.286,35.559 C41.286,35.096 41.662,34.72 42.125,34.72 C42.588,34.72 42.963,35.096 42.963,35.559 C42.963,36.022 42.588,36.397 42.125,36.397 z" fill="#FFFFFF" fill-opacity="0.052"/>
      <path d="M42.125,36.397 C41.662,36.397 41.286,36.022 41.286,35.559 C41.286,35.096 41.662,34.72 42.125,34.72 C42.588,34.72 42.963,35.096 42.963,35.559 C42.963,36.022 42.588,36.397 42.125,36.397 z" fill-opacity="0" stroke="#AA8004" stroke-width="0.467" stroke-linecap="round" stroke-linejoin="round"/>
    </g>
    <g>
      <path d="M42.933,37.857 C42.47,37.857 42.094,37.482 42.094,37.018 C42.094,36.555 42.47,36.18 42.933,36.18 C43.396,36.18 43.771,36.555 43.771,37.018 C43.771,37.482 43.396,37.857 42.933,37.857 z" fill="#FFFFFF" fill-opacity="0.052"/>
      <path d="M42.933,37.857 C42.47,37.857 42.094,37.482 42.094,37.018 C42.094,36.555 42.47,36.18 42.933,36.18 C43.396,36.18 43.771,36.555 43.771,37.018 C43.771,37.482 43.396,37.857 42.933,37.857 z" fill-opacity="0" stroke="#AA8004" stroke-width="0.467" stroke-linecap="round" stroke-linejoin="round"/>
    </g>
    <g>
      <path d="M43.328,39.465 C42.864,39.465 42.489,39.09 42.489,38.627 C42.489,38.164 42.864,37.788 43.328,37.788 C43.791,37.788 44.166,38.164 44.166,38.627 C44.166,39.09 43.791,39.465 43.328,39.465 z" fill="#FFFFFF" fill-opacity="0.052"/>
      <path d="M43.328,39.465 C42.864,39.465 42.489,39.09 42.489,38.627 C42.489,38.164 42.864,37.788 43.328,37.788 C43.791,37.788 44.166,38.164 44.166,38.627 C44.166,39.09 43.791,39.465 43.328,39.465 z" fill-opacity="0" stroke="#AA8004" stroke-width="0.467" stroke-linecap="round" stroke-linejoin="round"/>
    </g>
    <g>
      <path d="M43.328,41.142 C42.864,41.142 42.489,40.767 42.489,40.304 C42.489,39.841 42.864,39.465 43.328,39.465 C43.791,39.465 44.166,39.841 44.166,40.304 C44.166,40.767 43.791,41.142 43.328,41.142 z" fill="#FFFFFF" fill-opacity="0.052"/>
      <path d="M43.328,41.142 C42.864,41.142 42.489,40.767 42.489,40.304 C42.489,39.841 42.864,39.465 43.328,39.465 C43.791,39.465 44.166,39.841 44.166,40.304 C44.166,40.767 43.791,41.142 43.328,41.142 z" fill-opacity="0" stroke="#AA8004" stroke-width="0.467" stroke-linecap="round" stroke-linejoin="round"/>
    </g>
    <g>
      <path d="M42.984,42.819 C42.521,42.819 42.146,42.444 42.146,41.981 C42.146,41.518 42.521,41.142 42.984,41.142 C43.447,41.142 43.823,41.518 43.823,41.981 C43.823,42.444 43.447,42.819 42.984,42.819 z" fill="#FFFFFF" fill-opacity="0.052"/>
      <path d="M42.984,42.819 C42.521,42.819 42.146,42.444 42.146,41.981 C42.146,41.518 42.521,41.142 42.984,41.142 C43.447,41.142 43.823,41.518 43.823,41.981 C43.823,42.444 43.447,42.819 42.984,42.819 z" fill-opacity="0" stroke="#AA8004" stroke-width="0.467" stroke-linecap="round" stroke-linejoin="round"/>
    </g>
    <g>
      <path d="M42.933,44.496 C42.47,44.496 42.094,44.121 42.094,43.658 C42.094,43.195 42.47,42.819 42.933,42.819 C43.396,42.819 43.771,43.195 43.771,43.658 C43.771,44.121 43.396,44.496 42.933,44.496 z" fill="#FFFFFF" fill-opacity="0.052"/>
      <path d="M42.933,44.496 C42.47,44.496 42.094,44.121 42.094,43.658 C42.094,43.195 42.47,42.819 42.933,42.819 C43.396,42.819 43.771,43.195 43.771,43.658 C43.771,44.121 43.396,44.496 42.933,44.496 z" fill-opacity="0" stroke="#AA8004" stroke-width="0.467" stroke-linecap="round" stroke-linejoin="round"/>
    </g>
    <g>
      <path d="M42.787,46.173 C43.25,46.173 43.625,45.798 43.625,45.335 C43.625,44.872 43.25,44.496 42.787,44.496 C42.324,44.496 41.948,44.872 41.948,45.335 C41.948,45.798 42.324,46.173 42.787,46.173 z" fill="#FFFFFF" fill-opacity="0.052"/>
      <path d="M42.787,46.173 C43.25,46.173 43.625,45.798 43.625,45.335 C43.625,44.872 43.25,44.496 42.787,44.496 C42.324,44.496 41.948,44.872 41.948,45.335 C41.948,45.798 42.324,46.173 42.787,46.173 z" fill-opacity="0" stroke="#AA8004" stroke-width="0.467" stroke-linecap="round" stroke-linejoin="round"/>
    </g>
    <g>
      <path d="M43.181,51.404 C43.644,51.404 44.02,51.028 44.02,50.565 C44.02,50.102 43.644,49.727 43.181,49.727 C42.718,49.727 42.343,50.102 42.343,50.565 C42.343,51.028 42.718,51.404 43.181,51.404 z" fill="#FFFFFF" fill-opacity="0.052"/>
      <path d="M43.181,51.404 C43.644,51.404 44.02,51.028 44.02,50.565 C44.02,50.102 43.644,49.727 43.181,49.727 C42.718,49.727 42.343,50.102 42.343,50.565 C42.343,51.028 42.718,51.404 43.181,51.404 z" fill-opacity="0" stroke="#AA8004" stroke-width="0.467" stroke-linecap="round" stroke-linejoin="round"/>
    </g>
    <g>
      <path d="M43.13,47.85 C43.593,47.85 43.969,47.475 43.969,47.012 C43.969,46.549 43.593,46.173 43.13,46.173 C42.667,46.173 42.292,46.549 42.292,47.012 C42.292,47.475 42.667,47.85 43.13,47.85 z" fill="#FFFFFF" fill-opacity="0.052"/>
      <path d="M43.13,47.85 C43.593,47.85 43.969,47.475 43.969,47.012 C43.969,46.549 43.593,46.173 43.13,46.173 C42.667,46.173 42.292,46.549 42.292,47.012 C42.292,47.475 42.667,47.85 43.13,47.85 z" fill-opacity="0" stroke="#AA8004" stroke-width="0.467" stroke-linecap="round" stroke-linejoin="round"/>
    </g>
    <g>
      <path d="M43.181,49.527 C43.644,49.527 44.02,49.152 44.02,48.689 C44.02,48.225 43.644,47.85 43.181,47.85 C42.718,47.85 42.343,48.225 42.343,48.689 C42.343,49.152 42.718,49.527 43.181,49.527 z" fill="#FFFFFF" fill-opacity="0.052"/>
      <path d="M43.181,49.527 C43.644,49.527 44.02,49.152 44.02,48.689 C44.02,48.225 43.644,47.85 43.181,47.85 C42.718,47.85 42.343,48.225 42.343,48.689 C42.343,49.152 42.718,49.527 43.181,49.527 z" fill-opacity="0" stroke="#AA8004" stroke-width="0.467" stroke-linecap="round" stroke-linejoin="round"/>
    </g>
    <g>
      <path d="M43.486,53.039 C43.949,53.039 44.324,52.664 44.324,52.2 C44.324,51.737 43.949,51.362 43.486,51.362 C43.022,51.362 42.647,51.737 42.647,52.2 C42.647,52.664 43.022,53.039 43.486,53.039 z" fill="#FFFFFF" fill-opacity="0.052"/>
      <path d="M43.486,53.039 C43.949,53.039 44.324,52.664 44.324,52.2 C44.324,51.737 43.949,51.362 43.486,51.362 C43.022,51.362 42.647,51.737 42.647,52.2 C42.647,52.664 43.022,53.039 43.486,53.039 z" fill-opacity="0" stroke="#AA8004" stroke-width="0.467" stroke-linecap="round" stroke-linejoin="round"/>
    </g>
    <g>
      <path d="M43.995,54.716 C44.458,54.716 44.833,54.34 44.833,53.877 C44.833,53.414 44.458,53.039 43.995,53.039 C43.532,53.039 43.156,53.414 43.156,53.877 C43.156,54.34 43.532,54.716 43.995,54.716 z" fill="#FFFFFF" fill-opacity="0.052"/>
      <path d="M43.995,54.716 C44.458,54.716 44.833,54.34 44.833,53.877 C44.833,53.414 44.458,53.039 43.995,53.039 C43.532,53.039 43.156,53.414 43.156,53.877 C43.156,54.34 43.532,54.716 43.995,54.716 z" fill-opacity="0" stroke="#AA8004" stroke-width="0.467" stroke-linecap="round" stroke-linejoin="round"/>
    </g>
    <g>
      <path d="M43.995,56.393 C44.458,56.393 44.833,56.017 44.833,55.554 C44.833,55.091 44.458,54.716 43.995,54.716 C43.532,54.716 43.156,55.091 43.156,55.554 C43.156,56.017 43.532,56.393 43.995,56.393 z" fill="#FFFFFF" fill-opacity="0.052"/>
      <path d="M43.995,56.393 C44.458,56.393 44.833,56.017 44.833,55.554 C44.833,55.091 44.458,54.716 43.995,54.716 C43.532,54.716 43.156,55.091 43.156,55.554 C43.156,56.017 43.532,56.393 43.995,56.393 z" fill-opacity="0" stroke="#AA8004" stroke-width="0.467" stroke-linecap="round" stroke-linejoin="round"/>
    </g>
    <g>
      <path d="M32.122,41.065 C28.015,41.065 24.685,37.735 24.685,33.628 C24.685,29.52 28.015,26.191 32.122,26.191 C36.229,26.191 39.559,29.52 39.559,33.628 C39.559,37.735 36.229,41.065 32.122,41.065 z" fill="url(#Gradient_1)"/>
      <path d="M32.122,41.065 C28.015,41.065 24.685,37.735 24.685,33.628 C24.685,29.52 28.015,26.191 32.122,26.191 C36.229,26.191 39.559,29.52 39.559,33.628 C39.559,37.735 36.229,41.065 32.122,41.065 z" fill-opacity="0" stroke="#A9A9A9" stroke-width="1.4"/>
      <g>
        <path d="M32.122,25.491 C36.616,25.491 40.259,29.134 40.259,33.628 C40.259,38.122 36.616,41.765 32.122,41.765 C27.628,41.765 23.985,38.122 23.985,33.628 C23.985,29.134 27.628,25.491 32.122,25.491 z" fill="rgba(0,0,0,0.086)" clip-path="url(#Clip_1)" filter="url(#Shadow_2)"/>
        <path d="M32.122,25.616 C36.547,25.616 40.134,29.203 40.134,33.628 C40.134,38.053 36.547,41.64 32.122,41.64 C27.697,41.64 24.11,38.053 24.11,33.628 C24.11,29.203 27.697,25.616 32.122,25.616 z M32.122,25.366 C27.559,25.366 23.86,29.065 23.86,33.628 C23.86,38.191 27.559,41.89 32.122,41.89 C36.685,41.89 40.384,38.191 40.384,33.628 C40.384,29.065 36.685,25.366 32.122,25.366 z" fill="rgba(0,0,0,0.086)" clip-path="url(#Clip_1)" filter="url(#Shadow_2)"/>
      </g>
    </g>
    <g>
      <path d="M10.856,30.09 L11.23,30.103 L11.495,30.279 L13.211,31.996 L14.927,30.279 C15.24,29.967 15.747,29.967 16.059,30.279 C16.372,30.592 16.372,31.099 16.059,31.412 L14.343,33.128 L16.059,34.844 C16.372,35.157 16.372,35.664 16.059,35.976 C15.747,36.289 15.24,36.289 14.927,35.976 L13.211,34.26 L11.495,35.976 C11.182,36.289 10.675,36.289 10.362,35.976 C10.05,35.664 10.05,35.157 10.362,34.844 L12.078,33.128 L10.362,31.412 C10.05,31.099 10.05,30.592 10.362,30.279 C10.657,30.078 10.494,30.143 10.856,30.09 z" clip-path="url(#Clip_3)" filter="url(#Shadow_4)" fill="rgba(0,0,0,0.312)"/>
      <path d="M11.23,30.103 L11.495,30.279 L13.211,31.996 L14.927,30.279 C15.24,29.967 15.747,29.967 16.059,30.279 C16.372,30.592 16.372,31.099 16.059,31.412 L14.343,33.128 L16.059,34.844 C16.372,35.157 16.372,35.664 16.059,35.976 C15.747,36.289 15.24,36.289 14.927,35.976 L13.211,34.26 L11.495,35.976 C11.182,36.289 10.675,36.289 10.362,35.976 C10.05,35.664 10.05,35.157 10.362,34.844 L12.079,33.128 L10.362,31.412 C10.05,31.099 10.05,30.592 10.362,30.279 C10.795,29.992 10.521,30.103 11.23,30.103 z" fill="#121212"/>
    </g>
    <g>
      <path d="M29.267,30.09 L29.641,30.103 L29.906,30.279 L31.622,31.996 L33.338,30.279 C33.651,29.967 34.158,29.967 34.471,30.279 C34.783,30.592 34.783,31.099 34.471,31.412 L32.754,33.128 L34.471,34.844 C34.783,35.157 34.783,35.664 34.471,35.976 C34.158,36.289 33.651,36.289 33.338,35.976 L31.622,34.26 L29.906,35.976 C29.593,36.289 29.087,36.289 28.774,35.976 C28.461,35.664 28.461,35.157 28.774,34.844 L30.49,33.128 L28.774,31.412 C28.461,31.099 28.461,30.592 28.774,30.279 C29.069,30.078 28.905,30.143 29.267,30.09 z" clip-path="url(#Clip_5)" filter="url(#Shadow_6)" fill="rgba(0,0,0,0.312)"/>
      <path d="M29.641,30.103 L29.906,30.279 L31.622,31.996 L33.338,30.279 C33.651,29.967 34.158,29.967 34.471,30.279 C34.783,30.592 34.783,31.099 34.471,31.412 L32.754,33.128 L34.471,34.844 C34.783,35.157 34.783,35.664 34.471,35.976 C34.158,36.289 33.651,36.289 33.338,35.976 L31.622,34.26 L29.906,35.976 C29.593,36.289 29.087,36.289 28.774,35.976 C28.461,35.664 28.461,35.157 28.774,34.844 L30.49,33.128 L28.774,31.412 C28.461,31.099 28.461,30.592 28.774,30.279 C29.206,29.992 28.933,30.103 29.641,30.103 z" fill="#121212"/>
    </g>
  </g>
</svg>
